<svg version="1.1" xmlns="http://www.w3.org/2000/svg" xmlns:xlink="http://www.w3.org/1999/xlink" width="1604" height="1036"><defs/><g><g><rect fill="#D8F2FF" stroke="none" x="2144" y="976" width="208" height="296" transform="matrix(1 0 0 1 -758 -478)"/></g><g><path fill="none" stroke="#000000" paint-order="fill stroke markers" d=" M 1386 498 L 1594 498 L 1594 794 L 1386 794 L 1386 498 Z Z" stroke-miterlimit="10" stroke-dasharray=""/></g><g><rect fill="#A3E0FF" stroke="none" x="1112" y="680" width="248" height="208" transform="matrix(1 0 0 1 -758 -478)"/></g><g><path fill="none" stroke="#000000" paint-order="fill stroke markers" d=" M 354 202 L 602 202 L 602 410 L 354 410 L 354 202 Z Z" stroke-miterlimit="10" stroke-dasharray=""/></g><g><rect fill="#A3E0FF" stroke="none" x="768" y="1024" width="608" height="480" transform="matrix(1 0 0 1 -758 -478)"/></g><g><path fill="none" stroke="#000000" paint-order="fill stroke markers" d=" M 10 546 L 618 546 L 618 1026 L 10 1026 L 10 546 Z Z" stroke-miterlimit="10" stroke-dasharray=""/></g><g><rect fill="#A3E0FF" stroke="none" x="1416" y="744" width="664" height="392" transform="matrix(1 0 0 1 -758 -478)"/></g><g><path fill="none" stroke="#000000" paint-order="fill stroke markers" d=" M 658 266 L 1322 266 L 1322 658 L 658 658 L 658 266 Z Z" stroke-miterlimit="10" stroke-dasharray=""/></g><g><rect fill="#C0C0C0" stroke="none" x="1639" y="807" width="224" height="106" transform="matrix(1 0 0 1 -758 -478)" fill-opacity="0.2"/></g><g><rect fill="#ffffff" stroke="none" x="1632" y="800" width="224" height="106" transform="matrix(1 0 0 1 -758 -478)"/></g><g><path fill="none" stroke="#000000" paint-order="fill stroke markers" d=" M 874 322 L 1098 322 L 1098 428 L 874 428 L 874 322 Z Z" stroke-miterlimit="10" stroke-dasharray=""/></g><g><rect fill="#ffffff" stroke="none" x="1632" y="800" width="224" height="106" transform="matrix(1 0 0 1 -758 -478)"/></g><g><path fill="none" stroke="#000000" paint-order="fill stroke markers" d=" M 874 322 L 1098 322 L 1098 428 L 874 428 L 874 322 Z Z" stroke-miterlimit="10" stroke-dasharray=""/></g><g><path fill="none" stroke="#000000" paint-order="fill stroke markers" d=" M 874 360 L 1099 360" stroke-miterlimit="10" stroke-dasharray=""/></g><g><g><path fill="none" stroke="none"/><text fill="#000000" stroke="none" font-family="Arial" font-size="13px" font-style="normal" font-weight="normal" text-decoration="undefined" x="1744.5" y="811.5" text-anchor="middle" dominant-baseline="central" transform="matrix(1 0 0 1 -758 -478)">«Aggregate Root»</text></g></g><g><g><path fill="none" stroke="none"/><text fill="#000000" stroke="none" font-family="Arial" font-size="13px" font-style="normal" font-weight="bold" text-decoration="undefined" x="1744.5" y="826.5" text-anchor="middle" dominant-baseline="central" transform="matrix(1 0 0 1 -758 -478)">Customer</text><path fill="none" stroke="#000000" paint-order="fill stroke markers" d=" M 1016.838623046875 355 L 956.161376953125 355" stroke-miterlimit="10" stroke-dasharray=""/></g></g><g><g><path fill="none" stroke="none"/><text fill="#000000" stroke="none" font-family="Arial" font-size="13px" font-style="normal" font-weight="normal" text-decoration="undefined" x="1637" y="849.5" text-anchor="start" dominant-baseline="central" transform="matrix(1 0 0 1 -758 -478)">+customerID</text></g></g><g><g><path fill="none" stroke="none"/><text fill="#000000" stroke="none" font-family="Arial" font-size="13px" font-style="normal" font-weight="normal" text-decoration="undefined" x="1637" y="864.5" text-anchor="start" dominant-baseline="central" transform="matrix(1 0 0 1 -758 -478)">+name</text></g></g><g><g><path fill="none" stroke="none"/><text fill="#000000" stroke="none" font-family="Arial" font-size="13px" font-style="normal" font-weight="normal" text-decoration="undefined" x="1637" y="879.5" text-anchor="start" dominant-baseline="central" transform="matrix(1 0 0 1 -758 -478)">+accountNumber</text></g></g><g><g><path fill="none" stroke="none"/><text fill="#002133" stroke="none" font-family="Arial" font-size="13px" font-style="normal" font-weight="normal" text-decoration="undefined" x="1637" y="757" text-anchor="start" dominant-baseline="text-before-edge" transform="matrix(1 0 0 1 -758 -478)">Customer Management Context</text></g></g><g><rect fill="#C0C0C0" stroke="none" x="1471" y="1015" width="124.20703125" height="106" transform="matrix(1 0 0 1 -758 -478)" fill-opacity="0.2"/></g><g><rect fill="#ffffff" stroke="none" x="1464" y="1008" width="124.20703125" height="106" transform="matrix(1 0 0 1 -758 -478)"/></g><g><path fill="none" stroke="#000000" paint-order="fill stroke markers" d=" M 706 530 L 830.20703125 530 L 830.20703125 636 L 706 636 L 706 530 Z Z" stroke-miterlimit="10" stroke-dasharray=""/></g><g><rect fill="#ffffff" stroke="none" x="1464" y="1008" width="124.20703125" height="106" transform="matrix(1 0 0 1 -758 -478)"/></g><g><path fill="none" stroke="#000000" paint-order="fill stroke markers" d=" M 706 530 L 830.20703125 530 L 830.20703125 636 L 706 636 L 706 530 Z Z" stroke-miterlimit="10" stroke-dasharray=""/></g><g><path fill="none" stroke="#000000" paint-order="fill stroke markers" d=" M 706 568 L 831.20703125 568" stroke-miterlimit="10" stroke-dasharray=""/></g><g><g><path fill="none" stroke="none"/><text fill="#000000" stroke="none" font-family="Arial" font-size="13px" font-style="normal" font-weight="normal" text-decoration="undefined" x="1526.603515625" y="1019.5" text-anchor="middle" dominant-baseline="central" transform="matrix(1 0 0 1 -758 -478)">«value object»</text></g></g><g><g><path fill="none" stroke="none"/><text fill="#000000" stroke="none" font-family="Arial" font-size="13px" font-style="normal" font-weight="bold" text-decoration="undefined" x="1526.603515625" y="1034.5" text-anchor="middle" dominant-baseline="central" transform="matrix(1 0 0 1 -758 -478)">Address</text><path fill="none" stroke="#000000" paint-order="fill stroke markers" d=" M 794.613037109375 563 L 742.593994140625 563" stroke-miterlimit="10" stroke-dasharray=""/></g></g><g><g><path fill="none" stroke="none"/><text fill="#000000" stroke="none" font-family="Arial" font-size="13px" font-style="normal" font-weight="normal" text-decoration="undefined" x="1469" y="1057.5" text-anchor="start" dominant-baseline="central" transform="matrix(1 0 0 1 -758 -478)">+branchID</text></g></g><g><g><path fill="none" stroke="none"/><text fill="#000000" stroke="none" font-family="Arial" font-size="13px" font-style="normal" font-weight="normal" text-decoration="undefined" x="1469" y="1072.5" text-anchor="start" dominant-baseline="central" transform="matrix(1 0 0 1 -758 -478)">+branchName</text></g></g><g><g><path fill="none" stroke="none"/><text fill="#000000" stroke="none" font-family="Arial" font-size="13px" font-style="normal" font-weight="normal" text-decoration="undefined" x="1469" y="1087.5" text-anchor="start" dominant-baseline="central" transform="matrix(1 0 0 1 -758 -478)">+dzongkhang</text></g></g><g><rect fill="#C0C0C0" stroke="none" x="1671" y="1007" width="137.87353515625" height="121" transform="matrix(1 0 0 1 -758 -478)" fill-opacity="0.2"/></g><g><rect fill="#ffffff" stroke="none" x="1664" y="1000" width="137.87353515625" height="121" transform="matrix(1 0 0 1 -758 -478)"/></g><g><path fill="none" stroke="#000000" paint-order="fill stroke markers" d=" M 906 522 L 1043.87353515625 522 L 1043.87353515625 643 L 906 643 L 906 522 Z Z" stroke-miterlimit="10" stroke-dasharray=""/></g><g><rect fill="#ffffff" stroke="none" x="1664" y="1000" width="137.87353515625" height="121" transform="matrix(1 0 0 1 -758 -478)"/></g><g><path fill="none" stroke="#000000" paint-order="fill stroke markers" d=" M 906 522 L 1043.87353515625 522 L 1043.87353515625 643 L 906 643 L 906 522 Z Z" stroke-miterlimit="10" stroke-dasharray=""/></g><g><path fill="none" stroke="#000000" paint-order="fill stroke markers" d=" M 906 560 L 1044.87353515625 560" stroke-miterlimit="10" stroke-dasharray=""/></g><g><g><path fill="none" stroke="none"/><text fill="#000000" stroke="none" font-family="Arial" font-size="13px" font-style="normal" font-weight="normal" text-decoration="undefined" x="1733.436767578125" y="1011.5" text-anchor="middle" dominant-baseline="central" transform="matrix(1 0 0 1 -758 -478)">«value object»</text></g></g><g><g><path fill="none" stroke="none"/><text fill="#000000" stroke="none" font-family="Arial" font-size="13px" font-style="normal" font-weight="bold" text-decoration="undefined" x="1733.436767578125" y="1026.5" text-anchor="middle" dominant-baseline="central" transform="matrix(1 0 0 1 -758 -478)">EmployementDetails</text><path fill="none" stroke="#000000" paint-order="fill stroke markers" d=" M 1039.37353515625 555 L 911.5 555" stroke-miterlimit="10" stroke-dasharray=""/></g></g><g><g><path fill="none" stroke="none"/><text fill="#000000" stroke="none" font-family="Arial" font-size="13px" font-style="normal" font-weight="normal" text-decoration="undefined" x="1669" y="1049.5" text-anchor="start" dominant-baseline="central" transform="matrix(1 0 0 1 -758 -478)">+employementID</text></g></g><g><g><path fill="none" stroke="none"/><text fill="#000000" stroke="none" font-family="Arial" font-size="13px" font-style="normal" font-weight="normal" text-decoration="undefined" x="1669" y="1064.5" text-anchor="start" dominant-baseline="central" transform="matrix(1 0 0 1 -758 -478)">+companyName</text></g></g><g><g><path fill="none" stroke="none"/><text fill="#000000" stroke="none" font-family="Arial" font-size="13px" font-style="normal" font-weight="normal" text-decoration="undefined" x="1669" y="1079.5" text-anchor="start" dominant-baseline="central" transform="matrix(1 0 0 1 -758 -478)">+contactNumber</text></g></g><g><g><path fill="none" stroke="none"/><text fill="#000000" stroke="none" font-family="Arial" font-size="13px" font-style="normal" font-weight="normal" text-decoration="undefined" x="1669" y="1094.5" text-anchor="start" dominant-baseline="central" transform="matrix(1 0 0 1 -758 -478)">+occupation</text></g></g><g><g><path fill="none" stroke="none"/><text fill="#000000" stroke="none" font-family="Arial" font-size="13px" font-style="normal" font-weight="normal" text-decoration="undefined" x="1669" y="1109.5" text-anchor="start" dominant-baseline="central" transform="matrix(1 0 0 1 -758 -478)">+annualSalaryRange</text></g></g><g><rect fill="#C0C0C0" stroke="none" x="1903" y="1023" width="111.1181640625" height="61" transform="matrix(1 0 0 1 -758 -478)" fill-opacity="0.2"/></g><g><rect fill="#ffffff" stroke="none" x="1896" y="1016" width="111.1181640625" height="61" transform="matrix(1 0 0 1 -758 -478)"/></g><g><path fill="none" stroke="#000000" paint-order="fill stroke markers" d=" M 1138 538 L 1249.1181640625 538 L 1249.1181640625 599 L 1138 599 L 1138 538 Z Z" stroke-miterlimit="10" stroke-dasharray=""/></g><g><rect fill="#ffffff" stroke="none" x="1896" y="1016" width="111.1181640625" height="61" transform="matrix(1 0 0 1 -758 -478)"/></g><g><path fill="none" stroke="#000000" paint-order="fill stroke markers" d=" M 1138 538 L 1249.1181640625 538 L 1249.1181640625 599 L 1138 599 L 1138 538 Z Z" stroke-miterlimit="10" stroke-dasharray=""/></g><g><path fill="none" stroke="#000000" paint-order="fill stroke markers" d=" M 1138 576 L 1250.1181640625 576" stroke-miterlimit="10" stroke-dasharray=""/></g><g><g><path fill="none" stroke="none"/><text fill="#000000" stroke="none" font-family="Arial" font-size="13px" font-style="normal" font-weight="normal" text-decoration="undefined" x="1952.05908203125" y="1027.5" text-anchor="middle" dominant-baseline="central" transform="matrix(1 0 0 1 -758 -478)">«value object»</text></g></g><g><g><path fill="none" stroke="none"/><text fill="#000000" stroke="none" font-family="Arial" font-size="13px" font-style="normal" font-weight="bold" text-decoration="undefined" x="1952.05908203125" y="1042.5" text-anchor="middle" dominant-baseline="central" transform="matrix(1 0 0 1 -758 -478)">Name</text><path fill="none" stroke="#000000" paint-order="fill stroke markers" d=" M 1211.7626953125 571 L 1176.35546875 571" stroke-miterlimit="10" stroke-dasharray=""/></g></g><g><g><path fill="none" stroke="none"/><text fill="#000000" stroke="none" font-family="Arial" font-size="13px" font-style="normal" font-weight="normal" text-decoration="undefined" x="1901" y="1065.5" text-anchor="start" dominant-baseline="central" transform="matrix(1 0 0 1 -758 -478)">+name</text></g></g><g><rect fill="#C0C0C0" stroke="none" x="903" y="1087" width="238.81884765625" height="129" transform="matrix(1 0 0 1 -758 -478)" fill-opacity="0.2"/></g><g><rect fill="#ffffff" stroke="none" x="896" y="1080" width="238.81884765625" height="129" transform="matrix(1 0 0 1 -758 -478)"/></g><g><path fill="none" stroke="#000000" paint-order="fill stroke markers" d=" M 138 602 L 376.81884765625 602 L 376.81884765625 731 L 138 731 L 138 602 Z Z" stroke-miterlimit="10" stroke-dasharray=""/></g><g><rect fill="#ffffff" stroke="none" x="896" y="1080" width="238.81884765625" height="129" transform="matrix(1 0 0 1 -758 -478)"/></g><g><path fill="none" stroke="#000000" paint-order="fill stroke markers" d=" M 138 602 L 376.81884765625 602 L 376.81884765625 731 L 138 731 L 138 602 Z Z" stroke-miterlimit="10" stroke-dasharray=""/></g><g><path fill="none" stroke="#000000" paint-order="fill stroke markers" d=" M 138 640 L 377.81884765625 640" stroke-miterlimit="10" stroke-dasharray=""/></g><g><g><path fill="none" stroke="none"/><text fill="#000000" stroke="none" font-family="Arial" font-size="13px" font-style="normal" font-weight="normal" text-decoration="undefined" x="1015.909423828125" y="1091.5" text-anchor="middle" dominant-baseline="central" transform="matrix(1 0 0 1 -758 -478)">«Aggregate Root»</text></g></g><g><g><path fill="none" stroke="none"/><text fill="#000000" stroke="none" font-family="Arial" font-size="13px" font-style="normal" font-weight="bold" text-decoration="undefined" x="1015.909423828125" y="1106.5" text-anchor="middle" dominant-baseline="central" transform="matrix(1 0 0 1 -758 -478)">Account</text><path fill="none" stroke="#000000" paint-order="fill stroke markers" d=" M 283.909423828125 635 L 231.909423828125 635" stroke-miterlimit="10" stroke-dasharray=""/></g></g><g><g><path fill="none" stroke="none"/><text fill="#000000" stroke="none" font-family="Arial" font-size="13px" font-style="normal" font-weight="normal" text-decoration="undefined" x="901" y="1129.5" text-anchor="start" dominant-baseline="central" transform="matrix(1 0 0 1 -758 -478)">+accountNumber</text></g></g><g><g><path fill="none" stroke="none"/><text fill="#000000" stroke="none" font-family="Arial" font-size="13px" font-style="normal" font-weight="normal" text-decoration="undefined" x="901" y="1144.5" text-anchor="start" dominant-baseline="central" transform="matrix(1 0 0 1 -758 -478)">+accountType</text></g></g><g><g><path fill="none" stroke="none"/><text fill="#000000" stroke="none" font-family="Arial" font-size="13px" font-style="normal" font-weight="normal" text-decoration="undefined" x="901" y="1159.5" text-anchor="start" dominant-baseline="central" transform="matrix(1 0 0 1 -758 -478)">+holderID</text></g></g><g><g><path fill="none" stroke="none"/><text fill="#000000" stroke="none" font-family="Arial" font-size="13px" font-style="normal" font-weight="normal" text-decoration="undefined" x="901" y="1174.5" text-anchor="start" dominant-baseline="central" transform="matrix(1 0 0 1 -758 -478)">+branchName</text></g></g><g><g><path fill="none" stroke="none"/><text fill="#000000" stroke="none" font-family="Arial" font-size="13px" font-style="normal" font-weight="normal" text-decoration="undefined" x="901" y="1189.5" text-anchor="start" dominant-baseline="central" transform="matrix(1 0 0 1 -758 -478)">+balance</text></g></g><g><rect fill="#C0C0C0" stroke="none" x="799" y="1367" width="93.83984375" height="76" transform="matrix(1 0 0 1 -758 -478)" fill-opacity="0.2"/></g><g><rect fill="#ffffff" stroke="none" x="792" y="1360" width="93.83984375" height="76" transform="matrix(1 0 0 1 -758 -478)"/></g><g><path fill="none" stroke="#000000" paint-order="fill stroke markers" d=" M 34 882 L 127.83984375 882 L 127.83984375 958 L 34 958 L 34 882 Z Z" stroke-miterlimit="10" stroke-dasharray=""/></g><g><rect fill="#ffffff" stroke="none" x="792" y="1360" width="93.83984375" height="76" transform="matrix(1 0 0 1 -758 -478)"/></g><g><path fill="none" stroke="#000000" paint-order="fill stroke markers" d=" M 34 882 L 127.83984375 882 L 127.83984375 958 L 34 958 L 34 882 Z Z" stroke-miterlimit="10" stroke-dasharray=""/></g><g><path fill="none" stroke="#000000" paint-order="fill stroke markers" d=" M 34 920 L 128.83984375 920" stroke-miterlimit="10" stroke-dasharray=""/></g><g><g><path fill="none" stroke="none"/><text fill="#000000" stroke="none" font-family="Arial" font-size="13px" font-style="normal" font-weight="normal" text-decoration="undefined" x="839.419921875" y="1371.5" text-anchor="middle" dominant-baseline="central" transform="matrix(1 0 0 1 -758 -478)">«value object»</text></g></g><g><g><path fill="none" stroke="none"/><text fill="#000000" stroke="none" font-family="Arial" font-size="13px" font-style="normal" font-weight="bold" text-decoration="undefined" x="839.419921875" y="1386.5" text-anchor="middle" dominant-baseline="central" transform="matrix(1 0 0 1 -758 -478)">Balance</text><path fill="none" stroke="#000000" paint-order="fill stroke markers" d=" M 106.350341796875 915 L 56.489501953125 915" stroke-miterlimit="10" stroke-dasharray=""/></g></g><g><g><path fill="none" stroke="none"/><text fill="#000000" stroke="none" font-family="Arial" font-size="13px" font-style="normal" font-weight="normal" text-decoration="undefined" x="797" y="1409.5" text-anchor="start" dominant-baseline="central" transform="matrix(1 0 0 1 -758 -478)">+amount</text></g></g><g><g><path fill="none" stroke="none"/><text fill="#000000" stroke="none" font-family="Arial" font-size="13px" font-style="normal" font-weight="normal" text-decoration="undefined" x="797" y="1424.5" text-anchor="start" dominant-baseline="central" transform="matrix(1 0 0 1 -758 -478)">+currency</text></g></g><g><rect fill="#C0C0C0" stroke="none" x="1183" y="1231" width="184.51611328125" height="61" transform="matrix(1 0 0 1 -758 -478)" fill-opacity="0.2"/></g><g><rect fill="#ffffff" stroke="none" x="1176" y="1224" width="184.51611328125" height="61" transform="matrix(1 0 0 1 -758 -478)"/></g><g><path fill="none" stroke="#000000" paint-order="fill stroke markers" d=" M 418 746 L 602.51611328125 746 L 602.51611328125 807 L 418 807 L 418 746 Z Z" stroke-miterlimit="10" stroke-dasharray=""/></g><g><rect fill="#ffffff" stroke="none" x="1176" y="1224" width="184.51611328125" height="61" transform="matrix(1 0 0 1 -758 -478)"/></g><g><path fill="none" stroke="#000000" paint-order="fill stroke markers" d=" M 418 746 L 602.51611328125 746 L 602.51611328125 807 L 418 807 L 418 746 Z Z" stroke-miterlimit="10" stroke-dasharray=""/></g><g><path fill="none" stroke="#000000" paint-order="fill stroke markers" d=" M 418 784 L 603.51611328125 784" stroke-miterlimit="10" stroke-dasharray=""/></g><g><g><path fill="none" stroke="none"/><text fill="#000000" stroke="none" font-family="Arial" font-size="13px" font-style="normal" font-weight="normal" text-decoration="undefined" x="1268.758056640625" y="1235.5" text-anchor="middle" dominant-baseline="central" transform="matrix(1 0 0 1 -758 -478)">«entity»</text></g></g><g><g><path fill="none" stroke="none"/><text fill="#000000" stroke="none" font-family="Arial" font-size="13px" font-style="normal" font-weight="bold" text-decoration="undefined" x="1268.758056640625" y="1250.5" text-anchor="middle" dominant-baseline="central" transform="matrix(1 0 0 1 -758 -478)">CurrentAccount</text><path fill="none" stroke="#000000" paint-order="fill stroke markers" d=" M 560.231689453125 779 L 461.284423828125 779" stroke-miterlimit="10" stroke-dasharray=""/></g></g><g><g><path fill="none" stroke="none"/><text fill="#000000" stroke="none" font-family="Arial" font-size="13px" font-style="normal" font-weight="normal" text-decoration="undefined" x="1181" y="1273.5" text-anchor="start" dominant-baseline="central" transform="matrix(1 0 0 1 -758 -478)">+linkedSavingAccountNumber</text></g></g><g><rect fill="#C0C0C0" stroke="none" x="943" y="1375" width="144" height="61" transform="matrix(1 0 0 1 -758 -478)" fill-opacity="0.2"/></g><g><rect fill="#ffffff" stroke="none" x="936" y="1368" width="144" height="61" transform="matrix(1 0 0 1 -758 -478)"/></g><g><path fill="none" stroke="#000000" paint-order="fill stroke markers" d=" M 178 890 L 322 890 L 322 951 L 178 951 L 178 890 Z Z" stroke-miterlimit="10" stroke-dasharray=""/></g><g><rect fill="#ffffff" stroke="none" x="936" y="1368" width="144" height="61" transform="matrix(1 0 0 1 -758 -478)"/></g><g><path fill="none" stroke="#000000" paint-order="fill stroke markers" d=" M 178 890 L 322 890 L 322 951 L 178 951 L 178 890 Z Z" stroke-miterlimit="10" stroke-dasharray=""/></g><g><path fill="none" stroke="#000000" paint-order="fill stroke markers" d=" M 178 928 L 323 928" stroke-miterlimit="10" stroke-dasharray=""/></g><g><g><path fill="none" stroke="none"/><text fill="#000000" stroke="none" font-family="Arial" font-size="13px" font-style="normal" font-weight="normal" text-decoration="undefined" x="1008.5" y="1379.5" text-anchor="middle" dominant-baseline="central" transform="matrix(1 0 0 1 -758 -478)">«entity»</text></g></g><g><g><path fill="none" stroke="none"/><text fill="#000000" stroke="none" font-family="Arial" font-size="13px" font-style="normal" font-weight="bold" text-decoration="undefined" x="1008.5" y="1394.5" text-anchor="middle" dominant-baseline="central" transform="matrix(1 0 0 1 -758 -478)">SavingAccount</text><path fill="none" stroke="#000000" paint-order="fill stroke markers" d=" M 297.812255859375 923 L 203.187744140625 923" stroke-miterlimit="10" stroke-dasharray=""/></g></g><g><g><path fill="none" stroke="none"/><text fill="#000000" stroke="none" font-family="Arial" font-size="13px" font-style="normal" font-weight="normal" text-decoration="undefined" x="941" y="1417.5" text-anchor="start" dominant-baseline="central" transform="matrix(1 0 0 1 -758 -478)">+minimumbalance</text></g></g><g><rect fill="#C0C0C0" stroke="none" x="1015" y="1263" width="93.83984375" height="61" transform="matrix(1 0 0 1 -758 -478)" fill-opacity="0.2"/></g><g><rect fill="#ffffff" stroke="none" x="1008" y="1256" width="93.83984375" height="61" transform="matrix(1 0 0 1 -758 -478)"/></g><g><path fill="none" stroke="#000000" paint-order="fill stroke markers" d=" M 250 778 L 343.83984375 778 L 343.83984375 839 L 250 839 L 250 778 Z Z" stroke-miterlimit="10" stroke-dasharray=""/></g><g><rect fill="#ffffff" stroke="none" x="1008" y="1256" width="93.83984375" height="61" transform="matrix(1 0 0 1 -758 -478)"/></g><g><path fill="none" stroke="#000000" paint-order="fill stroke markers" d=" M 250 778 L 343.83984375 778 L 343.83984375 839 L 250 839 L 250 778 Z Z" stroke-miterlimit="10" stroke-dasharray=""/></g><g><path fill="none" stroke="#000000" paint-order="fill stroke markers" d=" M 250 816 L 344.83984375 816" stroke-miterlimit="10" stroke-dasharray=""/></g><g><g><path fill="none" stroke="none"/><text fill="#000000" stroke="none" font-family="Arial" font-size="13px" font-style="normal" font-weight="normal" text-decoration="undefined" x="1055.419921875" y="1267.5" text-anchor="middle" dominant-baseline="central" transform="matrix(1 0 0 1 -758 -478)">«value object»</text></g></g><g><g><path fill="none" stroke="none"/><text fill="#000000" stroke="none" font-family="Arial" font-size="13px" font-style="normal" font-weight="bold" text-decoration="undefined" x="1055.419921875" y="1282.5" text-anchor="middle" dominant-baseline="central" transform="matrix(1 0 0 1 -758 -478)">AccountType</text><path fill="none" stroke="#000000" paint-order="fill stroke markers" d=" M 338.1083984375 811 L 256.7314453125 811" stroke-miterlimit="10" stroke-dasharray=""/></g></g><g><g><path fill="none" stroke="none"/><text fill="#000000" stroke="none" font-family="Arial" font-size="13px" font-style="normal" font-weight="normal" text-decoration="undefined" x="1013" y="1305.5" text-anchor="start" dominant-baseline="central" transform="matrix(1 0 0 1 -758 -478)">+type</text></g></g><g><g><path fill="none" stroke="none"/><text fill="#002133" stroke="none" font-family="Arial" font-size="13px" font-style="normal" font-weight="normal" text-decoration="undefined" x="941" y="1037" text-anchor="start" dominant-baseline="text-before-edge" transform="matrix(1 0 0 1 -758 -478)">Account Management Context</text></g></g><g><rect fill="#C0C0C0" stroke="none" x="1183" y="767" width="115.5234375" height="76" transform="matrix(1 0 0 1 -758 -478)" fill-opacity="0.2"/></g><g><rect fill="#ffffff" stroke="none" x="1176" y="760" width="115.5234375" height="76" transform="matrix(1 0 0 1 -758 -478)"/></g><g><path fill="none" stroke="#000000" paint-order="fill stroke markers" d=" M 418 282 L 533.5234375 282 L 533.5234375 358 L 418 358 L 418 282 Z Z" stroke-miterlimit="10" stroke-dasharray=""/></g><g><rect fill="#ffffff" stroke="none" x="1176" y="760" width="115.5234375" height="76" transform="matrix(1 0 0 1 -758 -478)"/></g><g><path fill="none" stroke="#000000" paint-order="fill stroke markers" d=" M 418 282 L 533.5234375 282 L 533.5234375 358 L 418 358 L 418 282 Z Z" stroke-miterlimit="10" stroke-dasharray=""/></g><g><path fill="none" stroke="#000000" paint-order="fill stroke markers" d=" M 418 320 L 534.5234375 320" stroke-miterlimit="10" stroke-dasharray=""/></g><g><g><path fill="none" stroke="none"/><text fill="#000000" stroke="none" font-family="Arial" font-size="13px" font-style="normal" font-weight="normal" text-decoration="undefined" x="1234.26171875" y="771.5" text-anchor="middle" dominant-baseline="central" transform="matrix(1 0 0 1 -758 -478)">«Aggregate Root»</text></g></g><g><g><path fill="none" stroke="none"/><text fill="#000000" stroke="none" font-family="Arial" font-size="13px" font-style="normal" font-weight="bold" text-decoration="undefined" x="1234.26171875" y="786.5" text-anchor="middle" dominant-baseline="central" transform="matrix(1 0 0 1 -758 -478)">Branch</text><path fill="none" stroke="#000000" paint-order="fill stroke markers" d=" M 498.65625 315 L 453.8671875 315" stroke-miterlimit="10" stroke-dasharray=""/></g></g><g><g><path fill="none" stroke="none"/><text fill="#000000" stroke="none" font-family="Arial" font-size="13px" font-style="normal" font-weight="normal" text-decoration="undefined" x="1181" y="809.5" text-anchor="start" dominant-baseline="central" transform="matrix(1 0 0 1 -758 -478)">+branchName</text></g></g><g><g><path fill="none" stroke="none"/><text fill="#000000" stroke="none" font-family="Arial" font-size="13px" font-style="normal" font-weight="normal" text-decoration="undefined" x="1181" y="824.5" text-anchor="start" dominant-baseline="central" transform="matrix(1 0 0 1 -758 -478)">+address</text></g></g><g><g><path fill="none" stroke="none"/><text fill="#005884" stroke="none" font-family="Arial" font-size="13px" font-style="normal" font-weight="normal" text-decoration="undefined" x="1149" y="709" text-anchor="start" dominant-baseline="text-before-edge" transform="matrix(1 0 0 1 -758 -478)">Branch Management Context</text></g></g><g><rect fill="#C0C0C0" stroke="none" x="2191" y="1023" width="128" height="91" transform="matrix(1 0 0 1 -758 -478)" fill-opacity="0.2"/></g><g><rect fill="#ffffff" stroke="none" x="2184" y="1016" width="128" height="91" transform="matrix(1 0 0 1 -758 -478)"/></g><g><path fill="none" stroke="#000000" paint-order="fill stroke markers" d=" M 1426 538 L 1554 538 L 1554 629 L 1426 629 L 1426 538 Z Z" stroke-miterlimit="10" stroke-dasharray=""/></g><g><rect fill="#ffffff" stroke="none" x="2184" y="1016" width="128" height="91" transform="matrix(1 0 0 1 -758 -478)"/></g><g><path fill="none" stroke="#000000" paint-order="fill stroke markers" d=" M 1426 538 L 1554 538 L 1554 629 L 1426 629 L 1426 538 Z Z" stroke-miterlimit="10" stroke-dasharray=""/></g><g><path fill="none" stroke="#000000" paint-order="fill stroke markers" d=" M 1426 576 L 1555 576" stroke-miterlimit="10" stroke-dasharray=""/></g><g><g><path fill="none" stroke="none"/><text fill="#000000" stroke="none" font-family="Arial" font-size="13px" font-style="normal" font-weight="normal" text-decoration="undefined" x="2248.5" y="1027.5" text-anchor="middle" dominant-baseline="central" transform="matrix(1 0 0 1 -758 -478)">«Aggregate Root»</text></g></g><g><g><path fill="none" stroke="none"/><text fill="#000000" stroke="none" font-family="Arial" font-size="13px" font-style="normal" font-weight="bold" text-decoration="undefined" x="2248.5" y="1042.5" text-anchor="middle" dominant-baseline="central" transform="matrix(1 0 0 1 -758 -478)">ATMCard</text><path fill="none" stroke="#000000" paint-order="fill stroke markers" d=" M 1518.90576171875 571 L 1462.09423828125 571" stroke-miterlimit="10" stroke-dasharray=""/></g></g><g><g><path fill="none" stroke="none"/><text fill="#000000" stroke="none" font-family="Arial" font-size="13px" font-style="normal" font-weight="normal" text-decoration="undefined" x="2189" y="1065.5" text-anchor="start" dominant-baseline="central" transform="matrix(1 0 0 1 -758 -478)">+id</text></g></g><g><g><path fill="none" stroke="none"/><text fill="#000000" stroke="none" font-family="Arial" font-size="13px" font-style="normal" font-weight="normal" text-decoration="undefined" x="2189" y="1080.5" text-anchor="start" dominant-baseline="central" transform="matrix(1 0 0 1 -758 -478)">+customerID</text></g></g><g><g><path fill="none" stroke="none"/><text fill="#000000" stroke="none" font-family="Arial" font-size="13px" font-style="normal" font-weight="normal" text-decoration="undefined" x="2189" y="1095.5" text-anchor="start" dominant-baseline="central" transform="matrix(1 0 0 1 -758 -478)">+dateOfIssue</text></g></g><g><rect fill="#C0C0C0" stroke="none" x="2199" y="1167" width="112" height="91" transform="matrix(1 0 0 1 -758 -478)" fill-opacity="0.2"/></g><g><rect fill="#ffffff" stroke="none" x="2192" y="1160" width="112" height="91" transform="matrix(1 0 0 1 -758 -478)"/></g><g><path fill="none" stroke="#000000" paint-order="fill stroke markers" d=" M 1434 682 L 1546 682 L 1546 773 L 1434 773 L 1434 682 Z Z" stroke-miterlimit="10" stroke-dasharray=""/></g><g><rect fill="#ffffff" stroke="none" x="2192" y="1160" width="112" height="91" transform="matrix(1 0 0 1 -758 -478)"/></g><g><path fill="none" stroke="#000000" paint-order="fill stroke markers" d=" M 1434 682 L 1546 682 L 1546 773 L 1434 773 L 1434 682 Z Z" stroke-miterlimit="10" stroke-dasharray=""/></g><g><path fill="none" stroke="#000000" paint-order="fill stroke markers" d=" M 1434 720 L 1547 720" stroke-miterlimit="10" stroke-dasharray=""/></g><g><g><path fill="none" stroke="none"/><text fill="#000000" stroke="none" font-family="Arial" font-size="13px" font-style="normal" font-weight="normal" text-decoration="undefined" x="2248.5" y="1171.5" text-anchor="middle" dominant-baseline="central" transform="matrix(1 0 0 1 -758 -478)">«value object»</text></g></g><g><g><path fill="none" stroke="none"/><text fill="#000000" stroke="none" font-family="Arial" font-size="13px" font-style="normal" font-weight="bold" text-decoration="undefined" x="2248.5" y="1186.5" text-anchor="middle" dominant-baseline="central" transform="matrix(1 0 0 1 -758 -478)">Date</text><path fill="none" stroke="#000000" paint-order="fill stroke markers" d=" M 1504.588623046875 715 L 1476.411376953125 715" stroke-miterlimit="10" stroke-dasharray=""/></g></g><g><g><path fill="none" stroke="none"/><text fill="#000000" stroke="none" font-family="Arial" font-size="13px" font-style="normal" font-weight="normal" text-decoration="undefined" x="2197" y="1209.5" text-anchor="start" dominant-baseline="central" transform="matrix(1 0 0 1 -758 -478)">+day</text></g></g><g><g><path fill="none" stroke="none"/><text fill="#000000" stroke="none" font-family="Arial" font-size="13px" font-style="normal" font-weight="normal" text-decoration="undefined" x="2197" y="1224.5" text-anchor="start" dominant-baseline="central" transform="matrix(1 0 0 1 -758 -478)">+month</text></g></g><g><g><path fill="none" stroke="none"/><text fill="#000000" stroke="none" font-family="Arial" font-size="13px" font-style="normal" font-weight="normal" text-decoration="undefined" x="2197" y="1239.5" text-anchor="start" dominant-baseline="central" transform="matrix(1 0 0 1 -758 -478)">+year</text></g></g><g><g><path fill="none" stroke="none"/><text fill="#003D5B" stroke="none" font-family="Arial" font-size="13px" font-style="normal" font-weight="normal" text-decoration="undefined" x="2165" y="989" text-anchor="start" dominant-baseline="text-before-edge" transform="matrix(1 0 0 1 -758 -478)">Card Management Context</text></g></g><g><path fill="none" stroke="#000000" paint-order="fill stroke markers" d=" M 509 808 L 506 922 L 323 921" stroke-miterlimit="10" stroke-dasharray="3"/></g><g><path fill="none" stroke="#000000" paint-order="fill stroke markers" d=" M 333.1855256153226 916.8460780051128 L 323 921 L 333.13952064364867 925.264987821439" stroke-miterlimit="10" stroke-dasharray=""/></g><g><rect fill="#ffffff" stroke="none" x="1235" y="1408" width="56.01171875" height="13" transform="matrix(1 0 0 1 -758 -478)"/></g><g><g><path fill="none" stroke="none"/><text fill="#000000" stroke="none" font-family="Arial" font-size="13px" font-style="normal" font-weight="normal" text-decoration="undefined" x="1263.005859375" y="1414.5" text-anchor="middle" dominant-baseline="central" transform="matrix(1 0 0 1 -758 -478)">+linked to</text></g></g><g><path fill="none" stroke="#000000" paint-order="fill stroke markers" d=" M 167 732 L 82 794 L 81 881" stroke-miterlimit="10" stroke-dasharray="3"/></g><g><path fill="none" stroke="#000000" paint-order="fill stroke markers" d=" M 76.90756493160018 870.7896143456317 L 81 881 L 85.32604434630252 870.886378476835" stroke-miterlimit="10" stroke-dasharray=""/></g><g><rect fill="#ffffff" stroke="none" x="840" y="1266" width="28.5517578125" height="13" transform="matrix(1 0 0 1 -758 -478)"/></g><g><g><path fill="none" stroke="none"/><text fill="#000000" stroke="none" font-family="Arial" font-size="13px" font-style="normal" font-weight="normal" text-decoration="undefined" x="854.27587890625" y="1272.5" text-anchor="middle" dominant-baseline="central" transform="matrix(1 0 0 1 -758 -478)">+has</text></g></g><g><path fill="none" stroke="#000000" paint-order="fill stroke markers" d=" M 275 732 L 287 777" stroke-miterlimit="10" stroke-dasharray="3"/></g><g><path fill="none" stroke="#000000" paint-order="fill stroke markers" d=" M 280.31407512466717 768.2651039753523 L 287 777 L 288.44884139413625 766.0958329701605" stroke-miterlimit="10" stroke-dasharray=""/></g><g><rect fill="#ffffff" stroke="none" x="1024" y="1222" width="59.6171875" height="13" transform="matrix(1 0 0 1 -758 -478)"/></g><g><g><path fill="none" stroke="none"/><text fill="#000000" stroke="none" font-family="Arial" font-size="13px" font-style="normal" font-weight="normal" text-decoration="undefined" x="1053.80859375" y="1228.5" text-anchor="middle" dominant-baseline="central" transform="matrix(1 0 0 1 -758 -478)">+has type</text></g></g><g><path fill="none" stroke="#000000" paint-order="fill stroke markers" d=" M 177 920 L 129 920" stroke-miterlimit="10" stroke-dasharray="3"/></g><g><path fill="none" stroke="#000000" paint-order="fill stroke markers" d=" M 139.1626748576241 915.7904822439841 L 129 920 L 139.1626748576241 924.2095177560159" stroke-miterlimit="10" stroke-dasharray=""/></g><g><rect fill="#ffffff" stroke="none" x="896" y="1407" width="28.5517578125" height="13" transform="matrix(1 0 0 1 -758 -478)"/></g><g><g><path fill="none" stroke="none"/><text fill="#000000" stroke="none" font-family="Arial" font-size="13px" font-style="normal" font-weight="normal" text-decoration="undefined" x="910.27587890625" y="1413.5" text-anchor="middle" dominant-baseline="central" transform="matrix(1 0 0 1 -758 -478)">+has</text></g></g><g><path fill="none" stroke="#000000" paint-order="fill stroke markers" d=" M 239 889 L 210 810 L 235 732" stroke-miterlimit="10" stroke-dasharray="3"/></g><g><path fill="#FFFFFF" stroke="none" paint-order="stroke fill markers" d=" M 236.81362194791166 753.9251174553308 L 235 732 L 220.77902514690118 748.7858236088532"/></g><g><path fill="none" stroke="#000000" paint-order="fill stroke markers" d=" M 236.81362194791166 753.9251174553308 L 235 732 L 220.77902514690118 748.7858236088532 L 236.81362194791166 753.9251174553308" stroke-miterlimit="10" stroke-dasharray=""/></g><g><path fill="none" stroke="#000000" paint-order="fill stroke markers" d=" M 511 745 L 514 674 L 378 670" stroke-miterlimit="10" stroke-dasharray="3"/></g><g><path fill="#FFFFFF" stroke="none" paint-order="stroke fill markers" d=" M 398.56407583302985 662.1821495835877 L 378 670 L 398.06905251411695 679.0129424266227"/></g><g><path fill="none" stroke="#000000" paint-order="fill stroke markers" d=" M 398.56407583302985 662.1821495835877 L 378 670 L 398.06905251411695 679.0129424266227 L 398.56407583302985 662.1821495835877" stroke-miterlimit="10" stroke-dasharray=""/></g><g><path fill="none" stroke="#000000" paint-order="fill stroke markers" d=" M 873 420 L 378 618" stroke-miterlimit="10" stroke-dasharray="3"/></g><g><path fill="none" stroke="#000000" paint-order="fill stroke markers" d=" M 385.8724310758182 610.3172381947315 L 378 618 L 388.99918236888107 618.1341164273886" stroke-miterlimit="10" stroke-dasharray=""/></g><g><rect fill="#ffffff" stroke="none" x="1246" y="1034" width="61.07080078125" height="13" transform="matrix(1 0 0 1 -758 -478)"/></g><g><g><path fill="none" stroke="none"/><text fill="#000000" stroke="none" font-family="Arial" font-size="13px" font-style="normal" font-weight="normal" text-decoration="undefined" x="1276.535400390625" y="1040.5" text-anchor="middle" dominant-baseline="central" transform="matrix(1 0 0 1 -758 -478)">+holds of</text></g></g><g><path fill="none" stroke="#000000" paint-order="fill stroke markers" d=" M 259 601 L 266 322 L 417 321" stroke-miterlimit="10" stroke-dasharray="3"/></g><g><path fill="none" stroke="#000000" paint-order="fill stroke markers" d=" M 406.8654249806773 325.27672645579753 L 417 321 L 406.8096710012187 316.85787555756735" stroke-miterlimit="10" stroke-dasharray=""/></g><g><rect fill="#ffffff" stroke="none" x="1002" y="847" width="67.58349609375" height="13" transform="matrix(1 0 0 1 -758 -478)"/></g><g><g><path fill="none" stroke="none"/><text fill="#000000" stroke="none" font-family="Arial" font-size="13px" font-style="normal" font-weight="normal" text-decoration="undefined" x="1035.791748046875" y="853.5" text-anchor="middle" dominant-baseline="central" transform="matrix(1 0 0 1 -758 -478)">+belongs to</text></g></g><g><path fill="none" stroke="#000000" paint-order="fill stroke markers" d=" M 518 359 L 708 529" stroke-miterlimit="10" stroke-dasharray="3"/></g><g><path fill="none" stroke="#000000" paint-order="fill stroke markers" d=" M 697.6194700396172 525.3606871882736 L 708 529 L 703.2332396407342 519.0864741046723" stroke-miterlimit="10" stroke-dasharray=""/></g><g><rect fill="#ffffff" stroke="none" x="1310" y="892" width="63.96533203125" height="13" transform="matrix(1 0 0 1 -758 -478)"/></g><g><g><path fill="none" stroke="none"/><text fill="#000000" stroke="none" font-family="Arial" font-size="13px" font-style="normal" font-weight="normal" text-decoration="undefined" x="1341.982666015625" y="898.5" text-anchor="middle" dominant-baseline="central" transform="matrix(1 0 0 1 -758 -478)">+located at</text></g></g><g><path fill="none" stroke="#000000" paint-order="fill stroke markers" d=" M 983 429 L 978 521" stroke-miterlimit="10" stroke-dasharray="3"/></g><g><path fill="none" stroke="#000000" paint-order="fill stroke markers" d=" M 974.3481907025414 510.62385963592453 L 978 521 L 982.7548200961483 511.08074166818585" stroke-miterlimit="10" stroke-dasharray=""/></g><g><rect fill="#ffffff" stroke="none" x="1740" y="961" width="55.99267578125" height="13" transform="matrix(1 0 0 1 -758 -478)"/></g><g><g><path fill="none" stroke="none"/><text fill="#000000" stroke="none" font-family="Arial" font-size="13px" font-style="normal" font-weight="normal" text-decoration="undefined" x="1767.996337890625" y="967.5" text-anchor="middle" dominant-baseline="central" transform="matrix(1 0 0 1 -758 -478)">+works at</text></g></g><g><path fill="none" stroke="#000000" paint-order="fill stroke markers" d=" M 929 429 L 825 529" stroke-miterlimit="10" stroke-dasharray="3"/></g><g><path fill="none" stroke="#000000" paint-order="fill stroke markers" d=" M 829.407938617311 518.9218018899201 L 825 529 L 835.2432455131336 524.9905210615756" stroke-miterlimit="10" stroke-dasharray=""/></g><g><rect fill="#ffffff" stroke="none" x="1631" y="961" width="28.5517578125" height="13" transform="matrix(1 0 0 1 -758 -478)"/></g><g><g><path fill="none" stroke="none"/><text fill="#000000" stroke="none" font-family="Arial" font-size="13px" font-style="normal" font-weight="normal" text-decoration="undefined" x="1645.27587890625" y="967.5" text-anchor="middle" dominant-baseline="central" transform="matrix(1 0 0 1 -758 -478)">+has</text></g></g><g><path fill="none" stroke="#000000" paint-order="fill stroke markers" d=" M 1044 429 L 1160 537" stroke-miterlimit="10" stroke-dasharray="3"/></g><g><path fill="none" stroke="#000000" paint-order="fill stroke markers" d=" M 1149.6935561150472 533.1558857396898 L 1160 537 L 1155.4304429001525 526.9940443779101" stroke-miterlimit="10" stroke-dasharray=""/></g><g><rect fill="#ffffff" stroke="none" x="1850" y="944" width="40.11083984375" height="13" transform="matrix(1 0 0 1 -758 -478)"/></g><g><g><path fill="none" stroke="none"/><text fill="#000000" stroke="none" font-family="Arial" font-size="13px" font-style="normal" font-weight="normal" text-decoration="undefined" x="1870.055419921875" y="950.5" text-anchor="middle" dominant-baseline="central" transform="matrix(1 0 0 1 -758 -478)">+name</text></g></g><g><path fill="none" stroke="#000000" paint-order="fill stroke markers" d=" M 1099 422 L 1425 556" stroke-miterlimit="10" stroke-dasharray="3"/></g><g><path fill="none" stroke="#000000" paint-order="fill stroke markers" d=" M 1414.000040372313 556.0298025041452 L 1425 556 L 1417.2007804017067 548.2429275072616" stroke-miterlimit="10" stroke-dasharray=""/></g><g><rect fill="#ffffff" stroke="none" x="2007" y="947" width="37.93994140625" height="13" transform="matrix(1 0 0 1 -758 -478)"/></g><g><g><path fill="none" stroke="none"/><text fill="#000000" stroke="none" font-family="Arial" font-size="13px" font-style="normal" font-weight="normal" text-decoration="undefined" x="2025.969970703125" y="953.5" text-anchor="middle" dominant-baseline="central" transform="matrix(1 0 0 1 -758 -478)">+owns</text></g></g><g><path fill="none" stroke="#000000" paint-order="fill stroke markers" d=" M 1490 630 L 1490 681" stroke-miterlimit="10" stroke-dasharray="3"/></g><g><path fill="none" stroke="#000000" paint-order="fill stroke markers" d=" M 1485.7904822439841 670.8373251423759 L 1490 681 L 1494.2095177560159 670.8373251423759" stroke-miterlimit="10" stroke-dasharray=""/></g><g><rect fill="#ffffff" stroke="none" x="2231" y="1126" width="63.24169921875" height="13" transform="matrix(1 0 0 1 -758 -478)"/></g><g><g><path fill="none" stroke="none"/><text fill="#000000" stroke="none" font-family="Arial" font-size="13px" font-style="normal" font-weight="normal" text-decoration="undefined" x="2262.620849609375" y="1132.5" text-anchor="middle" dominant-baseline="central" transform="matrix(1 0 0 1 -758 -478)">+issued on</text></g></g><g><path fill="#FFC082" stroke="none" paint-order="stroke fill markers" d=" M 1298 458 L 1575 458 L 1585 468 L 1585 482 L 1298 482 L 1298 458"/></g><g><path fill="none" stroke="#000000" paint-order="fill stroke markers" d=" M 1298 458 L 1575 458 L 1585 468 L 1585 482 L 1298 482 L 1298 458 L 1298 458" stroke-miterlimit="10" stroke-dasharray=""/></g><g><path fill="none" stroke="#000000" paint-order="fill stroke markers" d=" M 1575 458 L 1575 468 L 1585 468 L 1575 458" stroke-miterlimit="10" stroke-dasharray=""/></g><g><g><path fill="none" stroke="none"/><text fill="#000000" stroke="none" font-family="Arial" font-size="13px" font-style="normal" font-weight="normal" text-decoration="undefined" x="2061" y="941" text-anchor="start" dominant-baseline="text-before-edge" transform="matrix(1 0 0 1 -758 -478)">A customer can optionally have one ATM card</text></g></g><g><path fill="#FFC082" stroke="none" paint-order="stroke fill markers" d=" M 322 490 L 615 490 L 625 500 L 625 527 L 322 527 L 322 490"/></g><g><path fill="none" stroke="#000000" paint-order="fill stroke markers" d=" M 322 490 L 615 490 L 625 500 L 625 527 L 322 527 L 322 490 L 322 490" stroke-miterlimit="10" stroke-dasharray=""/></g><g><path fill="none" stroke="#000000" paint-order="fill stroke markers" d=" M 615 490 L 615 500 L 625 500 L 615 490" stroke-miterlimit="10" stroke-dasharray=""/></g><g><g><path fill="none" stroke="none"/><text fill="#000000" stroke="none" font-family="Arial" font-size="13px" font-style="normal" font-weight="normal" text-decoration="undefined" x="1085" y="973" text-anchor="start" dominant-baseline="text-before-edge" transform="matrix(1 0 0 1 -758 -478)">A customer can hold multiple accounts, an account</text><text fill="#000000" stroke="none" font-family="Arial" font-size="13px" font-style="normal" font-weight="normal" text-decoration="undefined" x="1085" y="986" text-anchor="start" dominant-baseline="text-before-edge" transform="matrix(1 0 0 1 -758 -478)">can have 1 or 2 holders (joint account)</text></g></g><g><path fill="#FFC082" stroke="none" paint-order="stroke fill markers" d=" M 514 882 L 775 882 L 785 892 L 785 919 L 514 919 L 514 882"/></g><g><path fill="none" stroke="#000000" paint-order="fill stroke markers" d=" M 514 882 L 775 882 L 785 892 L 785 919 L 514 919 L 514 882 L 514 882" stroke-miterlimit="10" stroke-dasharray=""/></g><g><path fill="none" stroke="#000000" paint-order="fill stroke markers" d=" M 775 882 L 775 892 L 785 892 L 775 882" stroke-miterlimit="10" stroke-dasharray=""/></g><g><g><path fill="none" stroke="none"/><text fill="#000000" stroke="none" font-family="Arial" font-size="13px" font-style="normal" font-weight="normal" text-decoration="undefined" x="1277" y="1365" text-anchor="start" dominant-baseline="text-before-edge" transform="matrix(1 0 0 1 -758 -478)">A current account is linked to a savings</text><text fill="#000000" stroke="none" font-family="Arial" font-size="13px" font-style="normal" font-weight="normal" text-decoration="undefined" x="1277" y="1378" text-anchor="start" dominant-baseline="text-before-edge" transform="matrix(1 0 0 1 -758 -478)">account(for overdraft or validation)</text></g></g></g></svg>